<?xml version="1.0" encoding="UTF-8" standalone="no"?><!DOCTYPE svg PUBLIC "-//W3C//DTD SVG 1.1//EN" "http://www.w3.org/Graphics/SVG/1.1/DTD/svg11.dtd"><svg width="100%" height="100%" viewBox="0 0 284 52" version="1.1" xmlns="http://www.w3.org/2000/svg" xmlns:xlink="http://www.w3.org/1999/xlink" xml:space="preserve" xmlns:serif="http://www.serif.com/" style="fill-rule:evenodd;clip-rule:evenodd;stroke-linejoin:round;stroke-miterlimit:2;"><g><g transform="matrix(0.0962788,0,0,0.0940662,-77.8273,-83.1347)"><g transform="matrix(739.905,0,0,739.905,761,1418)"><path d="M0.064,-0.714l0,0.714l0.085,0l0,-0.292c0,-0.023 0.003,-0.045 0.009,-0.065c0.007,-0.019 0.016,-0.036 0.029,-0.051c0.013,-0.015 0.028,-0.026 0.047,-0.034c0.019,-0.008 0.042,-0.012 0.068,-0.012c0.033,0 0.058,0.009 0.077,0.028c0.019,0.019 0.028,0.044 0.028,0.076l0,0.35l0.085,0l0,-0.34c0,-0.028 -0.003,-0.054 -0.009,-0.077c-0.005,-0.023 -0.015,-0.042 -0.029,-0.059c-0.014,-0.017 -0.032,-0.03 -0.055,-0.039c-0.023,-0.009 -0.051,-0.014 -0.085,-0.014c-0.015,0 -0.031,0.002 -0.048,0.005c-0.016,0.003 -0.032,0.008 -0.047,0.015c-0.015,0.007 -0.028,0.016 -0.04,0.027c-0.012,0.011 -0.021,0.025 -0.028,0.041l-0.002,0l0,-0.273l-0.085,0Z" style="fill:#00a650;fill-rule:nonzero;"/></g><g transform="matrix(739.905,0,0,739.905,1172.39,1418)"><path d="M0.522,-0.002c-0.015,0.009 -0.035,0.013 -0.061,0.013c-0.022,0 -0.04,-0.006 -0.052,-0.019c-0.014,-0.012 -0.02,-0.032 -0.02,-0.06c-0.023,0.028 -0.051,0.048 -0.082,0.06c-0.03,0.013 -0.064,0.019 -0.1,0.019c-0.023,0 -0.045,-0.003 -0.066,-0.008c-0.021,-0.005 -0.04,-0.014 -0.055,-0.025c-0.015,-0.011 -0.027,-0.026 -0.036,-0.045c-0.009,-0.018 -0.014,-0.04 -0.014,-0.066c0,-0.029 0.005,-0.053 0.015,-0.072c0.01,-0.019 0.023,-0.034 0.04,-0.045c0.016,-0.012 0.035,-0.021 0.055,-0.027c0.021,-0.006 0.043,-0.011 0.065,-0.015c0.023,-0.005 0.046,-0.008 0.067,-0.01c0.02,-0.003 0.039,-0.006 0.055,-0.01c0.016,-0.005 0.029,-0.011 0.038,-0.019c0.009,-0.009 0.014,-0.021 0.014,-0.037c0,-0.019 -0.004,-0.034 -0.011,-0.045c-0.007,-0.011 -0.016,-0.02 -0.026,-0.026c-0.011,-0.006 -0.024,-0.01 -0.037,-0.012c-0.014,-0.002 -0.028,-0.003 -0.041,-0.003c-0.036,0 -0.066,0.007 -0.09,0.021c-0.024,0.013 -0.037,0.039 -0.039,0.077l-0.085,0c0.001,-0.032 0.008,-0.059 0.02,-0.081c0.012,-0.022 0.028,-0.04 0.048,-0.053c0.02,-0.014 0.043,-0.024 0.068,-0.03c0.026,-0.006 0.054,-0.009 0.083,-0.009c0.023,0 0.046,0.002 0.07,0.005c0.022,0.003 0.043,0.01 0.062,0.02c0.019,0.011 0.034,0.025 0.045,0.044c0.011,0.019 0.017,0.043 0.017,0.073l0,0.266c0,0.02 0.001,0.035 0.004,0.044c0.002,0.009 0.01,0.014 0.023,0.014c0.007,0 0.016,-0.002 0.026,-0.005l0,0.066Zm-0.138,-0.265c-0.011,0.008 -0.025,0.014 -0.042,0.018c-0.017,0.003 -0.036,0.006 -0.054,0.009c-0.02,0.002 -0.039,0.004 -0.058,0.007c-0.019,0.003 -0.037,0.008 -0.052,0.015c-0.015,0.007 -0.028,0.016 -0.038,0.028c-0.009,0.013 -0.014,0.03 -0.014,0.051c0,0.014 0.003,0.026 0.008,0.035c0.006,0.01 0.013,0.018 0.022,0.024c0.009,0.006 0.02,0.01 0.032,0.013c0.012,0.003 0.025,0.004 0.038,0.004c0.028,0 0.052,-0.004 0.072,-0.012c0.02,-0.007 0.036,-0.017 0.049,-0.029c0.013,-0.011 0.022,-0.024 0.028,-0.038c0.006,-0.013 0.009,-0.026 0.009,-0.038l0,-0.087Z" style="fill:#00a650;fill-rule:nonzero;"/></g><g transform="matrix(739.905,0,0,739.905,1569.72,1418)"><path d="M0.154,-0.61l0,-0.104l-0.085,0l0,0.104l0.085,0Zm-0.085,0.093l0,0.517l0.085,0l0,-0.517l-0.085,0Z" style="fill:#00a650;fill-rule:nonzero;"/></g><g transform="matrix(739.905,0,0,739.905,1733.97,1418)"><path d="M0.099,-0.442l0,0.442l0.085,0l0,-0.442l0.1,0l0,-0.075l-0.1,0l0,-0.072c0,-0.023 0.006,-0.038 0.017,-0.046c0.011,-0.008 0.027,-0.012 0.048,-0.012c0.007,0 0.015,0.001 0.024,0.002c0.009,0.001 0.017,0.002 0.024,0.005l0,-0.074c-0.008,-0.003 -0.017,-0.005 -0.028,-0.006c-0.01,-0.001 -0.019,-0.002 -0.027,-0.002c-0.047,0 -0.082,0.011 -0.107,0.032c-0.024,0.022 -0.036,0.054 -0.036,0.096l0,0.077l-0.087,0l0,0.075l0.087,0Z" style="fill:#00a650;fill-rule:nonzero;"/></g><g transform="matrix(739.905,0,0,739.905,1952.99,1418)"><path d="M0.522,-0.002c-0.015,0.009 -0.035,0.013 -0.061,0.013c-0.022,0 -0.04,-0.006 -0.052,-0.019c-0.014,-0.012 -0.02,-0.032 -0.02,-0.06c-0.023,0.028 -0.051,0.048 -0.082,0.06c-0.03,0.013 -0.064,0.019 -0.1,0.019c-0.023,0 -0.045,-0.003 -0.066,-0.008c-0.021,-0.005 -0.04,-0.014 -0.055,-0.025c-0.015,-0.011 -0.027,-0.026 -0.036,-0.045c-0.009,-0.018 -0.014,-0.04 -0.014,-0.066c0,-0.029 0.005,-0.053 0.015,-0.072c0.01,-0.019 0.023,-0.034 0.04,-0.045c0.016,-0.012 0.035,-0.021 0.055,-0.027c0.021,-0.006 0.043,-0.011 0.065,-0.015c0.023,-0.005 0.046,-0.008 0.067,-0.01c0.02,-0.003 0.039,-0.006 0.055,-0.01c0.016,-0.005 0.029,-0.011 0.038,-0.019c0.009,-0.009 0.014,-0.021 0.014,-0.037c0,-0.019 -0.004,-0.034 -0.011,-0.045c-0.007,-0.011 -0.016,-0.02 -0.026,-0.026c-0.011,-0.006 -0.024,-0.01 -0.037,-0.012c-0.014,-0.002 -0.028,-0.003 -0.041,-0.003c-0.036,0 -0.066,0.007 -0.09,0.021c-0.024,0.013 -0.037,0.039 -0.039,0.077l-0.085,0c0.001,-0.032 0.008,-0.059 0.02,-0.081c0.012,-0.022 0.028,-0.04 0.048,-0.053c0.02,-0.014 0.043,-0.024 0.068,-0.03c0.026,-0.006 0.054,-0.009 0.083,-0.009c0.023,0 0.046,0.002 0.07,0.005c0.022,0.003 0.043,0.01 0.062,0.02c0.019,0.011 0.034,0.025 0.045,0.044c0.011,0.019 0.017,0.043 0.017,0.073l0,0.266c0,0.02 0.001,0.035 0.004,0.044c0.002,0.009 0.01,0.014 0.023,0.014c0.007,0 0.016,-0.002 0.026,-0.005l0,0.066Zm-0.138,-0.265c-0.011,0.008 -0.025,0.014 -0.042,0.018c-0.017,0.003 -0.036,0.006 -0.054,0.009c-0.02,0.002 -0.039,0.004 -0.058,0.007c-0.019,0.003 -0.037,0.008 -0.052,0.015c-0.015,0.007 -0.028,0.016 -0.038,0.028c-0.009,0.013 -0.014,0.03 -0.014,0.051c0,0.014 0.003,0.026 0.008,0.035c0.006,0.01 0.013,0.018 0.022,0.024c0.009,0.006 0.02,0.01 0.032,0.013c0.012,0.003 0.025,0.004 0.038,0.004c0.028,0 0.052,-0.004 0.072,-0.012c0.02,-0.007 0.036,-0.017 0.049,-0.029c0.013,-0.011 0.022,-0.024 0.028,-0.038c0.006,-0.013 0.009,-0.026 0.009,-0.038l0,-0.087Z" style="fill:#00a650;fill-rule:nonzero;"/></g><g transform="matrix(739.905,0,0,739.905,2350.32,1418)"><path d="M0.194,-0.406l0,-0.111l-0.111,0l0,0.111l0.111,0Zm-0.111,0.295l0,0.111l0.111,0l0,-0.111l-0.111,0Z" style="fill:#fff;fill-rule:nonzero;"/></g><g transform="matrix(739.905,0,0,739.905,2556.01,1418)"><path d="M0.126,-0.254c0,-0.025 0.003,-0.05 0.008,-0.074c0.005,-0.024 0.014,-0.045 0.026,-0.064c0.012,-0.019 0.028,-0.034 0.048,-0.045c0.02,-0.011 0.044,-0.017 0.073,-0.017c0.029,0 0.054,0.006 0.075,0.017c0.021,0.01 0.037,0.025 0.05,0.043c0.013,0.018 0.023,0.039 0.029,0.063c0.006,0.023 0.009,0.048 0.009,0.073c0,0.024 -0.003,0.048 -0.009,0.071c-0.005,0.023 -0.014,0.044 -0.027,0.063c-0.013,0.018 -0.029,0.033 -0.049,0.044c-0.02,0.011 -0.044,0.017 -0.073,0.017c-0.027,0 -0.051,-0.005 -0.072,-0.016c-0.02,-0.011 -0.037,-0.025 -0.05,-0.043c-0.013,-0.018 -0.022,-0.039 -0.029,-0.062c-0.006,-0.022 -0.009,-0.046 -0.009,-0.07Zm0.4,0.254l0,-0.714l-0.085,0l0,0.266l-0.002,0c-0.009,-0.015 -0.021,-0.028 -0.034,-0.039c-0.014,-0.01 -0.029,-0.018 -0.044,-0.025c-0.015,-0.006 -0.031,-0.01 -0.046,-0.013c-0.015,-0.003 -0.03,-0.004 -0.043,-0.004c-0.039,0 -0.074,0.007 -0.104,0.021c-0.029,0.015 -0.054,0.034 -0.074,0.058c-0.019,0.025 -0.034,0.053 -0.044,0.086c-0.009,0.033 -0.014,0.067 -0.014,0.104c0,0.037 0.005,0.071 0.015,0.104c0.01,0.033 0.025,0.061 0.044,0.086c0.02,0.025 0.045,0.044 0.074,0.059c0.03,0.015 0.065,0.022 0.105,0.022c0.036,0 0.069,-0.006 0.099,-0.019c0.03,-0.013 0.052,-0.033 0.066,-0.062l0.002,0l0,0.07l0.085,0Z" style="fill:#fff;fill-rule:nonzero;"/></g><g transform="matrix(739.905,0,0,739.905,2994.77,1418)"><path d="M0.423,-0.308l-0.297,0c0.001,-0.02 0.006,-0.039 0.013,-0.056c0.007,-0.018 0.017,-0.034 0.03,-0.047c0.013,-0.013 0.028,-0.024 0.045,-0.032c0.018,-0.007 0.038,-0.011 0.06,-0.011c0.021,0 0.041,0.004 0.058,0.011c0.018,0.008 0.033,0.018 0.046,0.031c0.014,0.013 0.024,0.029 0.032,0.047c0.007,0.018 0.012,0.037 0.013,0.057Zm0.082,0.144l-0.084,0c-0.007,0.034 -0.022,0.059 -0.045,0.076c-0.023,0.017 -0.053,0.025 -0.089,0.025c-0.028,0 -0.052,-0.005 -0.073,-0.014c-0.021,-0.009 -0.038,-0.022 -0.051,-0.038c-0.013,-0.015 -0.023,-0.033 -0.029,-0.054c-0.006,-0.02 -0.009,-0.041 -0.008,-0.064l0.387,0c0.001,-0.031 -0.002,-0.064 -0.008,-0.099c-0.007,-0.035 -0.02,-0.067 -0.038,-0.096c-0.019,-0.029 -0.043,-0.054 -0.074,-0.073c-0.03,-0.019 -0.068,-0.028 -0.114,-0.028c-0.035,0 -0.068,0.007 -0.098,0.02c-0.029,0.013 -0.055,0.032 -0.077,0.056c-0.021,0.024 -0.038,0.052 -0.05,0.085c-0.012,0.033 -0.018,0.069 -0.018,0.108c0.001,0.039 0.007,0.076 0.017,0.109c0.011,0.033 0.026,0.062 0.047,0.086c0.021,0.024 0.046,0.043 0.076,0.056c0.031,0.013 0.067,0.02 0.108,0.02c0.059,0 0.107,-0.015 0.146,-0.044c0.039,-0.029 0.064,-0.073 0.075,-0.131Z" style="fill:#fff;fill-rule:nonzero;"/></g><g transform="matrix(739.905,0,0,739.905,3392.1,1418)"><path d="M0.297,0l0.189,-0.517l-0.089,0l-0.141,0.431l-0.002,0l-0.145,-0.431l-0.095,0l0.192,0.517l0.091,0Z" style="fill:#fff;fill-rule:nonzero;"/></g></g></g><rect id="Artboard1" x="0" y="0" width="283.381" height="51.017" style="fill:none;"/></svg>