<?xml version="1.0" encoding="UTF-8" standalone="no"?><!DOCTYPE svg PUBLIC "-//W3C//DTD SVG 1.1//EN" "http://www.w3.org/Graphics/SVG/1.1/DTD/svg11.dtd"><svg width="100%" height="100%" viewBox="0 0 621 186" version="1.1" xmlns="http://www.w3.org/2000/svg" xmlns:xlink="http://www.w3.org/1999/xlink" xml:space="preserve" xmlns:serif="http://www.serif.com/" style="fill-rule:evenodd;clip-rule:evenodd;stroke-linejoin:round;stroke-miterlimit:2;"><rect id="Artboard1" x="0" y="0" width="620.59" height="185.081" style="fill:none;"/><clipPath id="_clip1"><rect x="0" y="0" width="620.59" height="185.081"/></clipPath><g clip-path="url(#_clip1)"><g><g transform="matrix(0.210845,0,0,0.20456,-169.775,-180.788)"><g transform="matrix(739.905,0,0,739.905,761,1418)"><path d="M0.064,-0.714l0,0.714l0.085,0l0,-0.292c0,-0.023 0.003,-0.045 0.009,-0.065c0.007,-0.019 0.016,-0.036 0.029,-0.051c0.013,-0.015 0.028,-0.026 0.047,-0.034c0.019,-0.008 0.042,-0.012 0.068,-0.012c0.033,0 0.058,0.009 0.077,0.028c0.019,0.019 0.028,0.044 0.028,0.076l0,0.35l0.085,0l0,-0.34c0,-0.028 -0.003,-0.054 -0.009,-0.077c-0.005,-0.023 -0.015,-0.042 -0.029,-0.059c-0.014,-0.017 -0.032,-0.03 -0.055,-0.039c-0.023,-0.009 -0.051,-0.014 -0.085,-0.014c-0.015,0 -0.031,0.002 -0.048,0.005c-0.016,0.003 -0.032,0.008 -0.047,0.015c-0.015,0.007 -0.028,0.016 -0.04,0.027c-0.012,0.011 -0.021,0.025 -0.028,0.041l-0.002,0l0,-0.273l-0.085,0Z" style="fill:#00a650;fill-rule:nonzero;"/></g><g transform="matrix(739.905,0,0,739.905,1172.39,1418)"><path d="M0.522,-0.002c-0.015,0.009 -0.035,0.013 -0.061,0.013c-0.022,0 -0.04,-0.006 -0.052,-0.019c-0.014,-0.012 -0.02,-0.032 -0.02,-0.06c-0.023,0.028 -0.051,0.048 -0.082,0.06c-0.03,0.013 -0.064,0.019 -0.1,0.019c-0.023,0 -0.045,-0.003 -0.066,-0.008c-0.021,-0.005 -0.04,-0.014 -0.055,-0.025c-0.015,-0.011 -0.027,-0.026 -0.036,-0.045c-0.009,-0.018 -0.014,-0.04 -0.014,-0.066c0,-0.029 0.005,-0.053 0.015,-0.072c0.01,-0.019 0.023,-0.034 0.04,-0.045c0.016,-0.012 0.035,-0.021 0.055,-0.027c0.021,-0.006 0.043,-0.011 0.065,-0.015c0.023,-0.005 0.046,-0.008 0.067,-0.01c0.02,-0.003 0.039,-0.006 0.055,-0.01c0.016,-0.005 0.029,-0.011 0.038,-0.019c0.009,-0.009 0.014,-0.021 0.014,-0.037c0,-0.019 -0.004,-0.034 -0.011,-0.045c-0.007,-0.011 -0.016,-0.02 -0.026,-0.026c-0.011,-0.006 -0.024,-0.01 -0.037,-0.012c-0.014,-0.002 -0.028,-0.003 -0.041,-0.003c-0.036,0 -0.066,0.007 -0.09,0.021c-0.024,0.013 -0.037,0.039 -0.039,0.077l-0.085,0c0.001,-0.032 0.008,-0.059 0.02,-0.081c0.012,-0.022 0.028,-0.04 0.048,-0.053c0.02,-0.014 0.043,-0.024 0.068,-0.03c0.026,-0.006 0.054,-0.009 0.083,-0.009c0.023,0 0.046,0.002 0.07,0.005c0.022,0.003 0.043,0.01 0.062,0.02c0.019,0.011 0.034,0.025 0.045,0.044c0.011,0.019 0.017,0.043 0.017,0.073l0,0.266c0,0.02 0.001,0.035 0.004,0.044c0.002,0.009 0.01,0.014 0.023,0.014c0.007,0 0.016,-0.002 0.026,-0.005l0,0.066Zm-0.138,-0.265c-0.011,0.008 -0.025,0.014 -0.042,0.018c-0.017,0.003 -0.036,0.006 -0.054,0.009c-0.02,0.002 -0.039,0.004 -0.058,0.007c-0.019,0.003 -0.037,0.008 -0.052,0.015c-0.015,0.007 -0.028,0.016 -0.038,0.028c-0.009,0.013 -0.014,0.03 -0.014,0.051c0,0.014 0.003,0.026 0.008,0.035c0.006,0.01 0.013,0.018 0.022,0.024c0.009,0.006 0.02,0.01 0.032,0.013c0.012,0.003 0.025,0.004 0.038,0.004c0.028,0 0.052,-0.004 0.072,-0.012c0.02,-0.007 0.036,-0.017 0.049,-0.029c0.013,-0.011 0.022,-0.024 0.028,-0.038c0.006,-0.013 0.009,-0.026 0.009,-0.038l0,-0.087Z" style="fill:#00a650;fill-rule:nonzero;"/></g><g transform="matrix(739.905,0,0,739.905,1569.72,1418)"><path d="M0.154,-0.61l0,-0.104l-0.085,0l0,0.104l0.085,0Zm-0.085,0.093l0,0.517l0.085,0l0,-0.517l-0.085,0Z" style="fill:#00a650;fill-rule:nonzero;"/></g><g transform="matrix(739.905,0,0,739.905,1733.97,1418)"><path d="M0.099,-0.442l0,0.442l0.085,0l0,-0.442l0.1,0l0,-0.075l-0.1,0l0,-0.072c0,-0.023 0.006,-0.038 0.017,-0.046c0.011,-0.008 0.027,-0.012 0.048,-0.012c0.007,0 0.015,0.001 0.024,0.002c0.009,0.001 0.017,0.002 0.024,0.005l0,-0.074c-0.008,-0.003 -0.017,-0.005 -0.028,-0.006c-0.01,-0.001 -0.019,-0.002 -0.027,-0.002c-0.047,0 -0.082,0.011 -0.107,0.032c-0.024,0.022 -0.036,0.054 -0.036,0.096l0,0.077l-0.087,0l0,0.075l0.087,0Z" style="fill:#00a650;fill-rule:nonzero;"/></g><g transform="matrix(739.905,0,0,739.905,1952.99,1418)"><path d="M0.522,-0.002c-0.015,0.009 -0.035,0.013 -0.061,0.013c-0.022,0 -0.04,-0.006 -0.052,-0.019c-0.014,-0.012 -0.02,-0.032 -0.02,-0.06c-0.023,0.028 -0.051,0.048 -0.082,0.06c-0.03,0.013 -0.064,0.019 -0.1,0.019c-0.023,0 -0.045,-0.003 -0.066,-0.008c-0.021,-0.005 -0.04,-0.014 -0.055,-0.025c-0.015,-0.011 -0.027,-0.026 -0.036,-0.045c-0.009,-0.018 -0.014,-0.04 -0.014,-0.066c0,-0.029 0.005,-0.053 0.015,-0.072c0.01,-0.019 0.023,-0.034 0.04,-0.045c0.016,-0.012 0.035,-0.021 0.055,-0.027c0.021,-0.006 0.043,-0.011 0.065,-0.015c0.023,-0.005 0.046,-0.008 0.067,-0.01c0.02,-0.003 0.039,-0.006 0.055,-0.01c0.016,-0.005 0.029,-0.011 0.038,-0.019c0.009,-0.009 0.014,-0.021 0.014,-0.037c0,-0.019 -0.004,-0.034 -0.011,-0.045c-0.007,-0.011 -0.016,-0.02 -0.026,-0.026c-0.011,-0.006 -0.024,-0.01 -0.037,-0.012c-0.014,-0.002 -0.028,-0.003 -0.041,-0.003c-0.036,0 -0.066,0.007 -0.09,0.021c-0.024,0.013 -0.037,0.039 -0.039,0.077l-0.085,0c0.001,-0.032 0.008,-0.059 0.02,-0.081c0.012,-0.022 0.028,-0.04 0.048,-0.053c0.02,-0.014 0.043,-0.024 0.068,-0.03c0.026,-0.006 0.054,-0.009 0.083,-0.009c0.023,0 0.046,0.002 0.07,0.005c0.022,0.003 0.043,0.01 0.062,0.02c0.019,0.011 0.034,0.025 0.045,0.044c0.011,0.019 0.017,0.043 0.017,0.073l0,0.266c0,0.02 0.001,0.035 0.004,0.044c0.002,0.009 0.01,0.014 0.023,0.014c0.007,0 0.016,-0.002 0.026,-0.005l0,0.066Zm-0.138,-0.265c-0.011,0.008 -0.025,0.014 -0.042,0.018c-0.017,0.003 -0.036,0.006 -0.054,0.009c-0.02,0.002 -0.039,0.004 -0.058,0.007c-0.019,0.003 -0.037,0.008 -0.052,0.015c-0.015,0.007 -0.028,0.016 -0.038,0.028c-0.009,0.013 -0.014,0.03 -0.014,0.051c0,0.014 0.003,0.026 0.008,0.035c0.006,0.01 0.013,0.018 0.022,0.024c0.009,0.006 0.02,0.01 0.032,0.013c0.012,0.003 0.025,0.004 0.038,0.004c0.028,0 0.052,-0.004 0.072,-0.012c0.02,-0.007 0.036,-0.017 0.049,-0.029c0.013,-0.011 0.022,-0.024 0.028,-0.038c0.006,-0.013 0.009,-0.026 0.009,-0.038l0,-0.087Z" style="fill:#00a650;fill-rule:nonzero;"/></g><g transform="matrix(739.905,0,0,739.905,2350.32,1418)"><path d="M0.194,-0.406l0,-0.111l-0.111,0l0,0.111l0.111,0Zm-0.111,0.295l0,0.111l0.111,0l0,-0.111l-0.111,0Z" style="fill:#fff;fill-rule:nonzero;"/></g><g transform="matrix(739.905,0,0,739.905,2556.01,1418)"><path d="M0.126,-0.254c0,-0.025 0.003,-0.05 0.008,-0.074c0.005,-0.024 0.014,-0.045 0.026,-0.064c0.012,-0.019 0.028,-0.034 0.048,-0.045c0.02,-0.011 0.044,-0.017 0.073,-0.017c0.029,0 0.054,0.006 0.075,0.017c0.021,0.01 0.037,0.025 0.05,0.043c0.013,0.018 0.023,0.039 0.029,0.063c0.006,0.023 0.009,0.048 0.009,0.073c0,0.024 -0.003,0.048 -0.009,0.071c-0.005,0.023 -0.014,0.044 -0.027,0.063c-0.013,0.018 -0.029,0.033 -0.049,0.044c-0.02,0.011 -0.044,0.017 -0.073,0.017c-0.027,0 -0.051,-0.005 -0.072,-0.016c-0.02,-0.011 -0.037,-0.025 -0.05,-0.043c-0.013,-0.018 -0.022,-0.039 -0.029,-0.062c-0.006,-0.022 -0.009,-0.046 -0.009,-0.07Zm0.4,0.254l0,-0.714l-0.085,0l0,0.266l-0.002,0c-0.009,-0.015 -0.021,-0.028 -0.034,-0.039c-0.014,-0.01 -0.029,-0.018 -0.044,-0.025c-0.015,-0.006 -0.031,-0.01 -0.046,-0.013c-0.015,-0.003 -0.03,-0.004 -0.043,-0.004c-0.039,0 -0.074,0.007 -0.104,0.021c-0.029,0.015 -0.054,0.034 -0.074,0.058c-0.019,0.025 -0.034,0.053 -0.044,0.086c-0.009,0.033 -0.014,0.067 -0.014,0.104c0,0.037 0.005,0.071 0.015,0.104c0.01,0.033 0.025,0.061 0.044,0.086c0.02,0.025 0.045,0.044 0.074,0.059c0.03,0.015 0.065,0.022 0.105,0.022c0.036,0 0.069,-0.006 0.099,-0.019c0.03,-0.013 0.052,-0.033 0.066,-0.062l0.002,0l0,0.07l0.085,0Z" style="fill:#fff;fill-rule:nonzero;"/></g><g transform="matrix(739.905,0,0,739.905,2994.77,1418)"><path d="M0.423,-0.308l-0.297,0c0.001,-0.02 0.006,-0.039 0.013,-0.056c0.007,-0.018 0.017,-0.034 0.03,-0.047c0.013,-0.013 0.028,-0.024 0.045,-0.032c0.018,-0.007 0.038,-0.011 0.06,-0.011c0.021,0 0.041,0.004 0.058,0.011c0.018,0.008 0.033,0.018 0.046,0.031c0.014,0.013 0.024,0.029 0.032,0.047c0.007,0.018 0.012,0.037 0.013,0.057Zm0.082,0.144l-0.084,0c-0.007,0.034 -0.022,0.059 -0.045,0.076c-0.023,0.017 -0.053,0.025 -0.089,0.025c-0.028,0 -0.052,-0.005 -0.073,-0.014c-0.021,-0.009 -0.038,-0.022 -0.051,-0.038c-0.013,-0.015 -0.023,-0.033 -0.029,-0.054c-0.006,-0.02 -0.009,-0.041 -0.008,-0.064l0.387,0c0.001,-0.031 -0.002,-0.064 -0.008,-0.099c-0.007,-0.035 -0.02,-0.067 -0.038,-0.096c-0.019,-0.029 -0.043,-0.054 -0.074,-0.073c-0.03,-0.019 -0.068,-0.028 -0.114,-0.028c-0.035,0 -0.068,0.007 -0.098,0.02c-0.029,0.013 -0.055,0.032 -0.077,0.056c-0.021,0.024 -0.038,0.052 -0.05,0.085c-0.012,0.033 -0.018,0.069 -0.018,0.108c0.001,0.039 0.007,0.076 0.017,0.109c0.011,0.033 0.026,0.062 0.047,0.086c0.021,0.024 0.046,0.043 0.076,0.056c0.031,0.013 0.067,0.02 0.108,0.02c0.059,0 0.107,-0.015 0.146,-0.044c0.039,-0.029 0.064,-0.073 0.075,-0.131Z" style="fill:#fff;fill-rule:nonzero;"/></g><g transform="matrix(739.905,0,0,739.905,3392.1,1418)"><path d="M0.297,0l0.189,-0.517l-0.089,0l-0.141,0.431l-0.002,0l-0.145,-0.431l-0.095,0l0.192,0.517l0.091,0Z" style="fill:#fff;fill-rule:nonzero;"/></g></g><path d="M6.178,157.477c0,-1.517 0.164,-2.994 0.49,-4.431c0.327,-1.437 0.858,-2.714 1.594,-3.832c0.735,-1.118 1.716,-2.016 2.942,-2.694c1.225,-0.679 2.717,-1.018 4.474,-1.018c1.797,0 3.33,0.329 4.596,0.988c1.267,0.658 2.298,1.527 3.095,2.604c0.797,1.078 1.379,2.326 1.747,3.743c0.368,1.417 0.551,2.884 0.551,4.401c0,1.437 -0.173,2.854 -0.521,4.251c-0.347,1.397 -0.909,2.645 -1.685,3.743c-0.776,1.097 -1.777,1.986 -3.003,2.664c-1.226,0.679 -2.717,1.018 -4.474,1.018c-1.675,0 -3.136,-0.319 -4.382,-0.958c-1.246,-0.639 -2.268,-1.497 -3.064,-2.575c-0.797,-1.078 -1.389,-2.305 -1.778,-3.682c-0.388,-1.377 -0.582,-2.785 -0.582,-4.222Zm24.515,15.209l0,-42.753l-5.209,0l0,15.928l-0.123,0c-0.572,-0.918 -1.277,-1.687 -2.114,-2.305c-0.838,-0.619 -1.727,-1.118 -2.666,-1.497c-0.94,-0.38 -1.88,-0.649 -2.82,-0.809c-0.939,-0.159 -1.818,-0.239 -2.635,-0.239c-2.411,0 -4.525,0.429 -6.343,1.287c-1.818,0.858 -3.33,2.016 -4.535,3.473c-1.206,1.457 -2.105,3.164 -2.697,5.12c-0.592,1.956 -0.889,4.031 -0.889,6.227c0,2.196 0.307,4.271 0.92,6.227c0.613,1.956 1.522,3.673 2.727,5.15c1.205,1.477 2.717,2.655 4.535,3.533c1.818,0.878 3.953,1.317 6.405,1.317c2.206,0 4.228,-0.379 6.067,-1.138c1.839,-0.758 3.187,-1.996 4.045,-3.712l0.123,0l0,4.191l5.209,0Z" style="fill:#fff;fill-rule:nonzero;"/><path d="M60.723,154.244l-18.202,0c0.082,-1.198 0.348,-2.325 0.797,-3.383c0.449,-1.058 1.062,-1.986 1.839,-2.785c0.776,-0.798 1.705,-1.427 2.788,-1.886c1.083,-0.459 2.298,-0.688 3.647,-0.688c1.307,0 2.502,0.229 3.585,0.688c1.083,0.459 2.022,1.078 2.819,1.856c0.797,0.779 1.43,1.707 1.9,2.785c0.47,1.078 0.746,2.215 0.827,3.413Zm5.026,8.622l-5.148,0c-0.45,2.036 -1.379,3.553 -2.789,4.551c-1.409,0.998 -3.217,1.497 -5.424,1.497c-1.716,0 -3.207,-0.279 -4.474,-0.838c-1.266,-0.559 -2.308,-1.308 -3.125,-2.246c-0.817,-0.938 -1.41,-2.016 -1.777,-3.233c-0.368,-1.218 -0.532,-2.505 -0.491,-3.862l23.718,0c0.082,-1.876 -0.092,-3.852 -0.521,-5.928c-0.429,-2.076 -1.205,-3.992 -2.329,-5.749c-1.123,-1.756 -2.615,-3.203 -4.474,-4.341c-1.859,-1.137 -4.198,-1.706 -7.017,-1.706c-2.165,0 -4.157,0.399 -5.975,1.197c-1.819,0.799 -3.392,1.916 -4.719,3.354c-1.328,1.437 -2.36,3.133 -3.095,5.089c-0.736,1.956 -1.104,4.112 -1.104,6.467c0.082,2.355 0.44,4.531 1.073,6.527c0.633,1.996 1.583,3.712 2.85,5.149c1.266,1.437 2.829,2.555 4.688,3.353c1.859,0.799 4.055,1.198 6.589,1.198c3.595,0 6.578,-0.878 8.947,-2.635c2.37,-1.756 3.902,-4.371 4.597,-7.844Z" style="fill:#fff;fill-rule:nonzero;"/><path d="M85.912,172.686l11.583,-30.957l-5.454,0l-8.642,25.808l-0.122,0l-8.887,-25.808l-5.822,0l11.767,30.957l5.577,0Z" style="fill:#fff;fill-rule:nonzero;"/><path d="M124.278,154.244l-18.202,0c0.081,-1.198 0.347,-2.325 0.796,-3.383c0.45,-1.058 1.063,-1.986 1.839,-2.785c0.776,-0.798 1.706,-1.427 2.788,-1.886c1.083,-0.459 2.299,-0.688 3.647,-0.688c1.307,0 2.503,0.229 3.585,0.688c1.083,0.459 2.023,1.078 2.819,1.856c0.797,0.779 1.431,1.707 1.9,2.785c0.47,1.078 0.746,2.215 0.828,3.413Zm5.025,8.622l-5.148,0c-0.449,2.036 -1.379,3.553 -2.788,4.551c-1.41,0.998 -3.218,1.497 -5.424,1.497c-1.716,0 -3.208,-0.279 -4.474,-0.838c-1.267,-0.559 -2.309,-1.308 -3.126,-2.246c-0.817,-0.938 -1.409,-2.016 -1.777,-3.233c-0.368,-1.218 -0.531,-2.505 -0.49,-3.862l23.718,0c0.081,-1.876 -0.092,-3.852 -0.521,-5.928c-0.429,-2.076 -1.206,-3.992 -2.329,-5.749c-1.124,-1.756 -2.615,-3.203 -4.474,-4.341c-1.859,-1.137 -4.198,-1.706 -7.018,-1.706c-2.165,0 -4.157,0.399 -5.975,1.197c-1.818,0.799 -3.391,1.916 -4.719,3.354c-1.328,1.437 -2.36,3.133 -3.095,5.089c-0.736,1.956 -1.103,4.112 -1.103,6.467c0.081,2.355 0.439,4.531 1.072,6.527c0.634,1.996 1.584,3.712 2.85,5.149c1.267,1.437 2.83,2.555 4.689,3.353c1.859,0.799 4.055,1.198 6.588,1.198c3.595,0 6.578,-0.878 8.948,-2.635c2.37,-1.756 3.902,-4.371 4.596,-7.844Z" style="fill:#fff;fill-rule:nonzero;"/><rect x="135.493" y="129.933" width="5.209" height="42.753" style="fill:#fff;fill-rule:nonzero;"/><path d="M152.592,157.238c0,-1.876 0.256,-3.543 0.766,-5c0.511,-1.457 1.216,-2.685 2.115,-3.683c0.899,-0.998 1.951,-1.756 3.156,-2.275c1.205,-0.519 2.482,-0.778 3.83,-0.778c1.349,0 2.626,0.259 3.831,0.778c1.205,0.519 2.257,1.277 3.156,2.275c0.899,0.998 1.604,2.226 2.114,3.683c0.511,1.457 0.767,3.124 0.767,5c0,1.876 -0.256,3.543 -0.767,5c-0.51,1.457 -1.215,2.674 -2.114,3.652c-0.899,0.978 -1.951,1.727 -3.156,2.246c-1.205,0.519 -2.482,0.778 -3.831,0.778c-1.348,0 -2.625,-0.259 -3.83,-0.778c-1.205,-0.519 -2.257,-1.268 -3.156,-2.246c-0.899,-0.978 -1.604,-2.195 -2.115,-3.652c-0.51,-1.457 -0.766,-3.124 -0.766,-5Zm-5.516,0c0,2.275 0.327,4.391 0.981,6.347c0.654,1.956 1.634,3.662 2.942,5.119c1.307,1.458 2.921,2.595 4.841,3.414c1.921,0.818 4.127,1.227 6.619,1.227c2.534,0 4.75,-0.409 6.65,-1.227c1.9,-0.819 3.504,-1.956 4.811,-3.414c1.307,-1.457 2.288,-3.163 2.942,-5.119c0.653,-1.956 0.98,-4.072 0.98,-6.347c0,-2.276 -0.327,-4.401 -0.98,-6.377c-0.654,-1.976 -1.635,-3.693 -2.942,-5.15c-1.307,-1.457 -2.911,-2.604 -4.811,-3.443c-1.9,-0.838 -4.116,-1.257 -6.65,-1.257c-2.492,0 -4.698,0.419 -6.619,1.257c-1.92,0.839 -3.534,1.986 -4.841,3.443c-1.308,1.457 -2.288,3.174 -2.942,5.15c-0.654,1.976 -0.981,4.101 -0.981,6.377Z" style="fill:#fff;fill-rule:nonzero;"/><path d="M184.155,141.729l0,42.753l5.209,0l0,-15.927l0.123,0c0.572,0.918 1.277,1.686 2.114,2.305c0.838,0.619 1.726,1.108 2.666,1.467c0.94,0.359 1.89,0.619 2.85,0.779c0.96,0.159 1.828,0.239 2.605,0.239c2.41,0 4.525,-0.419 6.343,-1.257c1.818,-0.839 3.33,-1.986 4.535,-3.443c1.205,-1.457 2.104,-3.164 2.697,-5.12c0.592,-1.956 0.888,-4.032 0.888,-6.227c0,-2.196 -0.306,-4.272 -0.919,-6.228c-0.613,-1.956 -1.522,-3.682 -2.727,-5.179c-1.205,-1.497 -2.717,-2.685 -4.535,-3.563c-1.819,-0.878 -3.953,-1.317 -6.405,-1.317c-2.206,0 -4.229,0.389 -6.067,1.167c-1.839,0.779 -3.187,2.026 -4.045,3.743l-0.123,0l0,-4.192l-5.209,0Zm24.515,15.209c0,1.517 -0.164,2.994 -0.491,4.431c-0.327,1.437 -0.858,2.715 -1.593,3.833c-0.736,1.117 -1.706,2.016 -2.911,2.694c-1.206,0.679 -2.707,1.018 -4.505,1.018c-1.798,0 -3.33,-0.329 -4.596,-0.988c-1.267,-0.659 -2.299,-1.527 -3.095,-2.605c-0.797,-1.077 -1.379,-2.325 -1.747,-3.742c-0.368,-1.417 -0.552,-2.884 -0.552,-4.401c0,-1.437 0.174,-2.854 0.521,-4.251c0.348,-1.398 0.909,-2.645 1.686,-3.743c0.776,-1.098 1.777,-1.986 3.003,-2.664c1.226,-0.679 2.717,-1.018 4.474,-1.018c1.675,0 3.136,0.319 4.382,0.958c1.246,0.638 2.267,1.497 3.064,2.574c0.797,1.078 1.389,2.306 1.777,3.683c0.389,1.377 0.583,2.784 0.583,4.221Z" style="fill:#fff;fill-rule:nonzero;"/><path d="M242.316,154.244l-18.202,0c0.082,-1.198 0.347,-2.325 0.797,-3.383c0.449,-1.058 1.062,-1.986 1.838,-2.785c0.776,-0.798 1.706,-1.427 2.789,-1.886c1.082,-0.459 2.298,-0.688 3.646,-0.688c1.308,0 2.503,0.229 3.586,0.688c1.082,0.459 2.022,1.078 2.819,1.856c0.796,0.779 1.43,1.707 1.9,2.785c0.47,1.078 0.745,2.215 0.827,3.413Zm5.026,8.622l-5.149,0c-0.449,2.036 -1.379,3.553 -2.788,4.551c-1.41,0.998 -3.218,1.497 -5.424,1.497c-1.716,0 -3.207,-0.279 -4.474,-0.838c-1.267,-0.559 -2.308,-1.308 -3.126,-2.246c-0.817,-0.938 -1.409,-2.016 -1.777,-3.233c-0.368,-1.218 -0.531,-2.505 -0.49,-3.862l23.718,0c0.082,-1.876 -0.092,-3.852 -0.521,-5.928c-0.429,-2.076 -1.205,-3.992 -2.329,-5.749c-1.124,-1.756 -2.615,-3.203 -4.474,-4.341c-1.859,-1.137 -4.198,-1.706 -7.017,-1.706c-2.166,0 -4.158,0.399 -5.976,1.197c-1.818,0.799 -3.391,1.916 -4.719,3.354c-1.328,1.437 -2.359,3.133 -3.095,5.089c-0.735,1.956 -1.103,4.112 -1.103,6.467c0.082,2.355 0.439,4.531 1.073,6.527c0.633,1.996 1.583,3.712 2.849,5.149c1.267,1.437 2.83,2.555 4.689,3.353c1.859,0.799 4.055,1.198 6.588,1.198c3.596,0 6.578,-0.878 8.948,-2.635c2.37,-1.756 3.902,-4.371 4.597,-7.844Z" style="fill:#fff;fill-rule:nonzero;"/><path d="M253.041,141.729l0,30.957l5.21,0l0,-13.772c0,-1.996 0.204,-3.762 0.612,-5.299c0.409,-1.537 1.063,-2.844 1.962,-3.922c0.898,-1.078 2.083,-1.896 3.554,-2.455c1.471,-0.559 3.248,-0.838 5.332,-0.838l0,-5.389c-2.819,-0.08 -5.148,0.479 -6.987,1.676c-1.838,1.198 -3.391,3.054 -4.657,5.569l-0.123,0l0,-6.527l-4.903,0Z" style="fill:#fff;fill-rule:nonzero;"/><path d="M276.82,162.926l-5.209,0c0.082,1.916 0.49,3.543 1.226,4.88c0.735,1.338 1.716,2.415 2.942,3.234c1.225,0.818 2.635,1.407 4.228,1.766c1.594,0.359 3.269,0.539 5.026,0.539c1.593,0 3.197,-0.15 4.811,-0.449c1.614,-0.299 3.064,-0.828 4.351,-1.587c1.287,-0.758 2.329,-1.756 3.126,-2.994c0.797,-1.237 1.195,-2.794 1.195,-4.67c0,-1.477 -0.296,-2.715 -0.889,-3.713c-0.592,-0.998 -1.368,-1.826 -2.329,-2.485c-0.96,-0.658 -2.063,-1.187 -3.309,-1.586c-1.246,-0.4 -2.523,-0.739 -3.831,-1.018c-1.225,-0.28 -2.451,-0.549 -3.677,-0.809c-1.225,-0.259 -2.329,-0.579 -3.309,-0.958c-0.981,-0.379 -1.788,-0.858 -2.421,-1.437c-0.633,-0.579 -0.95,-1.307 -0.95,-2.185c0,-0.799 0.204,-1.447 0.613,-1.946c0.408,-0.499 0.94,-0.899 1.593,-1.198c0.654,-0.299 1.379,-0.509 2.176,-0.629c0.797,-0.119 1.583,-0.179 2.36,-0.179c0.858,0 1.705,0.089 2.543,0.269c0.838,0.18 1.604,0.469 2.298,0.868c0.695,0.4 1.267,0.928 1.716,1.587c0.45,0.659 0.715,1.487 0.797,2.485l5.209,0c-0.122,-1.876 -0.531,-3.443 -1.225,-4.7c-0.695,-1.258 -1.624,-2.256 -2.789,-2.994c-1.164,-0.739 -2.502,-1.258 -4.014,-1.557c-1.512,-0.3 -3.167,-0.449 -4.964,-0.449c-1.39,0 -2.789,0.169 -4.199,0.509c-1.409,0.339 -2.676,0.858 -3.799,1.557c-1.124,0.698 -2.043,1.606 -2.758,2.724c-0.715,1.118 -1.073,2.455 -1.073,4.012c0,1.996 0.511,3.553 1.532,4.67c1.022,1.118 2.299,1.986 3.831,2.605c1.532,0.619 3.197,1.098 4.995,1.437c1.797,0.339 3.462,0.719 4.995,1.138c1.532,0.419 2.809,0.968 3.83,1.647c1.021,0.678 1.532,1.676 1.532,2.993c0,0.958 -0.245,1.747 -0.735,2.366c-0.491,0.618 -1.114,1.087 -1.87,1.407c-0.755,0.319 -1.583,0.539 -2.482,0.658c-0.899,0.12 -1.757,0.18 -2.574,0.18c-1.062,0 -2.094,-0.1 -3.095,-0.299c-1.001,-0.2 -1.9,-0.529 -2.696,-0.988c-0.797,-0.459 -1.441,-1.078 -1.931,-1.857c-0.49,-0.778 -0.756,-1.726 -0.797,-2.844Z" style="fill:#fff;fill-rule:nonzero;"/><path d="M342.826,151.669l5.394,0c-0.205,-1.836 -0.695,-3.423 -1.471,-4.76c-0.777,-1.337 -1.767,-2.445 -2.973,-3.323c-1.205,-0.879 -2.594,-1.527 -4.167,-1.947c-1.573,-0.419 -3.259,-0.628 -5.056,-0.628c-2.493,0 -4.679,0.429 -6.558,1.287c-1.88,0.858 -3.442,2.036 -4.689,3.533c-1.246,1.497 -2.175,3.253 -2.788,5.269c-0.613,2.016 -0.919,4.182 -0.919,6.497c0,2.315 0.316,4.441 0.95,6.377c0.633,1.936 1.573,3.603 2.819,5c1.246,1.397 2.798,2.475 4.658,3.233c1.859,0.759 3.993,1.138 6.404,1.138c4.045,0 7.242,-1.038 9.591,-3.114c2.35,-2.075 3.81,-5.029 4.382,-8.862l-5.332,0c-0.326,2.396 -1.215,4.252 -2.666,5.569c-1.45,1.317 -3.462,1.976 -6.036,1.976c-1.635,0 -3.044,-0.319 -4.229,-0.958c-1.185,-0.639 -2.145,-1.487 -2.881,-2.545c-0.735,-1.058 -1.276,-2.265 -1.624,-3.622c-0.347,-1.358 -0.521,-2.755 -0.521,-4.192c0,-1.557 0.164,-3.064 0.491,-4.521c0.327,-1.457 0.868,-2.744 1.624,-3.862c0.756,-1.118 1.767,-2.016 3.033,-2.694c1.267,-0.679 2.84,-1.018 4.72,-1.018c2.206,0 3.963,0.539 5.27,1.616c1.308,1.078 2.166,2.595 2.574,4.551Z" style="fill:#fff;fill-rule:nonzero;"/><path d="M358.025,157.238c0,-1.876 0.256,-3.543 0.766,-5c0.511,-1.457 1.216,-2.685 2.115,-3.683c0.899,-0.998 1.951,-1.756 3.156,-2.275c1.205,-0.519 2.482,-0.778 3.831,-0.778c1.348,0 2.625,0.259 3.83,0.778c1.205,0.519 2.257,1.277 3.156,2.275c0.899,0.998 1.604,2.226 2.115,3.683c0.51,1.457 0.766,3.124 0.766,5c0,1.876 -0.256,3.543 -0.766,5c-0.511,1.457 -1.216,2.674 -2.115,3.652c-0.899,0.978 -1.951,1.727 -3.156,2.246c-1.205,0.519 -2.482,0.778 -3.83,0.778c-1.349,0 -2.626,-0.259 -3.831,-0.778c-1.205,-0.519 -2.257,-1.268 -3.156,-2.246c-0.899,-0.978 -1.604,-2.195 -2.115,-3.652c-0.51,-1.457 -0.766,-3.124 -0.766,-5Zm-5.515,0c0,2.275 0.326,4.391 0.98,6.347c0.654,1.956 1.634,3.662 2.942,5.119c1.307,1.458 2.921,2.595 4.842,3.414c1.92,0.818 4.126,1.227 6.619,1.227c2.533,0 4.749,-0.409 6.649,-1.227c1.9,-0.819 3.504,-1.956 4.811,-3.414c1.308,-1.457 2.288,-3.163 2.942,-5.119c0.654,-1.956 0.981,-4.072 0.981,-6.347c0,-2.276 -0.327,-4.401 -0.981,-6.377c-0.654,-1.976 -1.634,-3.693 -2.942,-5.15c-1.307,-1.457 -2.911,-2.604 -4.811,-3.443c-1.9,-0.838 -4.116,-1.257 -6.649,-1.257c-2.493,0 -4.699,0.419 -6.619,1.257c-1.921,0.839 -3.535,1.986 -4.842,3.443c-1.308,1.457 -2.288,3.174 -2.942,5.15c-0.654,1.976 -0.98,4.101 -0.98,6.377Z" style="fill:#fff;fill-rule:nonzero;"/><path d="M389.404,141.729l0,30.957l5.21,0l0,-19.28c0,-0.599 0.153,-1.348 0.459,-2.246c0.307,-0.898 0.797,-1.766 1.471,-2.605c0.674,-0.838 1.553,-1.556 2.635,-2.155c1.083,-0.599 2.38,-0.898 3.892,-0.898c1.185,0 2.155,0.169 2.911,0.509c0.756,0.339 1.359,0.818 1.808,1.437c0.45,0.618 0.766,1.347 0.95,2.185c0.184,0.839 0.276,1.757 0.276,2.755l0,20.298l5.209,0l0,-19.28c0,-2.396 0.736,-4.312 2.207,-5.749c1.471,-1.437 3.493,-2.155 6.067,-2.155c1.267,0 2.298,0.179 3.095,0.539c0.797,0.359 1.42,0.848 1.869,1.467c0.45,0.618 0.756,1.347 0.92,2.185c0.163,0.838 0.245,1.737 0.245,2.695l0,20.298l5.209,0l0,-22.693c0,-1.597 -0.255,-2.964 -0.766,-4.102c-0.511,-1.138 -1.226,-2.066 -2.145,-2.784c-0.919,-0.719 -2.022,-1.248 -3.31,-1.587c-1.287,-0.34 -2.727,-0.509 -4.32,-0.509c-2.084,0 -3.994,0.459 -5.731,1.377c-1.736,0.918 -3.135,2.215 -4.198,3.892c-0.653,-1.916 -1.777,-3.273 -3.37,-4.072c-1.594,-0.798 -3.371,-1.197 -5.332,-1.197c-4.454,0 -7.866,1.756 -10.235,5.269l-0.123,0l0,-4.551l-4.903,0Z" style="fill:#fff;fill-rule:nonzero;"/><path d="M441.682,141.729l0,30.957l5.209,0l0,-19.28c0,-0.599 0.153,-1.348 0.46,-2.246c0.306,-0.898 0.797,-1.766 1.471,-2.605c0.674,-0.838 1.552,-1.556 2.635,-2.155c1.083,-0.599 2.38,-0.898 3.892,-0.898c1.185,0 2.155,0.169 2.911,0.509c0.756,0.339 1.358,0.818 1.808,1.437c0.449,0.618 0.766,1.347 0.95,2.185c0.184,0.839 0.276,1.757 0.276,2.755l0,20.298l5.209,0l0,-19.28c0,-2.396 0.735,-4.312 2.206,-5.749c1.471,-1.437 3.494,-2.155 6.068,-2.155c1.266,0 2.298,0.179 3.095,0.539c0.796,0.359 1.419,0.848 1.869,1.467c0.449,0.618 0.756,1.347 0.919,2.185c0.164,0.838 0.245,1.737 0.245,2.695l0,20.298l5.21,0l0,-22.693c0,-1.597 -0.256,-2.964 -0.766,-4.102c-0.511,-1.138 -1.226,-2.066 -2.145,-2.784c-0.92,-0.719 -2.023,-1.248 -3.31,-1.587c-1.287,-0.34 -2.727,-0.509 -4.321,-0.509c-2.083,0 -3.993,0.459 -5.73,1.377c-1.736,0.918 -3.136,2.215 -4.198,3.892c-0.654,-1.916 -1.777,-3.273 -3.371,-4.072c-1.593,-0.798 -3.371,-1.197 -5.332,-1.197c-4.453,0 -7.865,1.756 -10.235,5.269l-0.122,0l0,-4.551l-4.903,0Z" style="fill:#fff;fill-rule:nonzero;"/><path d="M520.19,172.686l0,-30.957l-5.209,0l0,17.485c0,1.397 -0.194,2.684 -0.582,3.862c-0.389,1.178 -0.971,2.205 -1.747,3.084c-0.776,0.878 -1.747,1.556 -2.911,2.036c-1.165,0.479 -2.544,0.718 -4.137,0.718c-2.002,0 -3.575,-0.559 -4.719,-1.677c-1.144,-1.117 -1.716,-2.634 -1.716,-4.55l0,-20.958l-5.21,0l0,20.359c0,1.677 0.174,3.203 0.521,4.581c0.348,1.377 0.95,2.564 1.808,3.562c0.858,0.998 1.982,1.767 3.371,2.306c1.389,0.539 3.126,0.808 5.209,0.808c2.329,0 4.352,-0.449 6.068,-1.347c1.716,-0.898 3.125,-2.306 4.229,-4.222l0.122,0l0,4.91l4.903,0Z" style="fill:#fff;fill-rule:nonzero;"/><path d="M528.035,141.729l0,30.957l5.209,0l0,-17.484c0,-1.397 0.194,-2.685 0.582,-3.862c0.389,-1.178 0.971,-2.206 1.747,-3.084c0.776,-0.878 1.747,-1.557 2.911,-2.036c1.165,-0.479 2.544,-0.718 4.137,-0.718c2.002,0 3.575,0.559 4.719,1.676c1.144,1.118 1.716,2.635 1.716,4.551l0,20.957l5.21,0l0,-20.358c0,-1.677 -0.174,-3.204 -0.521,-4.581c-0.348,-1.377 -0.95,-2.565 -1.808,-3.563c-0.858,-0.998 -1.982,-1.776 -3.371,-2.335c-1.389,-0.559 -3.126,-0.838 -5.209,-0.838c-4.699,0 -8.131,1.876 -10.297,5.628l-0.122,0l0,-4.91l-4.903,0Z" style="fill:#fff;fill-rule:nonzero;"/><path d="M567.626,136.161l0,-6.228l-5.209,0l0,6.228l5.209,0Zm-5.209,5.568l0,30.957l5.209,0l0,-30.957l-5.209,0Z" style="fill:#fff;fill-rule:nonzero;"/><path d="M582.948,141.729l0,-9.281l-5.21,0l0,9.281l-5.393,0l0,4.491l5.393,0l0,19.7c0,1.437 0.143,2.595 0.429,3.473c0.286,0.878 0.726,1.557 1.318,2.036c0.592,0.479 1.369,0.808 2.329,0.988c0.96,0.18 2.114,0.269 3.463,0.269l3.983,0l0,-4.49l-2.39,0c-0.817,0 -1.481,-0.03 -1.992,-0.09c-0.51,-0.06 -0.909,-0.19 -1.195,-0.39c-0.286,-0.199 -0.48,-0.479 -0.582,-0.838c-0.102,-0.359 -0.153,-0.838 -0.153,-1.437l0,-19.221l6.312,0l0,-4.491l-6.312,0Z" style="fill:#fff;fill-rule:nonzero;"/><path d="M607.462,176.818c-0.612,1.517 -1.215,2.794 -1.808,3.832c-0.592,1.038 -1.246,1.886 -1.961,2.545c-0.715,0.659 -1.511,1.138 -2.39,1.437c-0.878,0.3 -1.89,0.449 -3.034,0.449c-0.612,0 -1.225,-0.04 -1.838,-0.12c-0.613,-0.079 -1.205,-0.219 -1.777,-0.419l0,-4.67c0.449,0.199 0.97,0.369 1.562,0.509c0.593,0.139 1.093,0.209 1.502,0.209c1.062,0 1.951,-0.249 2.666,-0.748c0.715,-0.499 1.256,-1.208 1.624,-2.126l2.145,-5.209l-12.564,-30.778l5.884,0l9.254,25.329l0.123,0l8.886,-25.329l5.516,0l-13.79,35.089Z" style="fill:#fff;fill-rule:nonzero;"/></g></g></svg>